<svg xmlns="http://www.w3.org/2000/svg" xmlns:xlink="http://www.w3.org/1999/xlink" width="160" zoomAndPan="magnify" viewBox="0 0 120 119.999999" height="160" preserveAspectRatio="xMidYMid meet" version="1.0"><defs><clipPath id="9eb93fc4df"><path d="M 21.636719 22.800781 L 98.136719 22.800781 L 98.136719 99.300781 L 21.636719 99.300781 Z M 21.636719 22.800781 " clip-rule="nonzero"/></clipPath><clipPath id="7fbc7a0008"><path d="M 98.140625 61.050781 C 98.140625 62.304688 98.078125 63.550781 97.957031 64.800781 C 97.832031 66.046875 97.648438 67.285156 97.40625 68.511719 C 97.160156 69.742188 96.855469 70.957031 96.492188 72.152344 C 96.128906 73.351562 95.707031 74.53125 95.226562 75.6875 C 94.75 76.847656 94.214844 77.976562 93.621094 79.082031 C 93.03125 80.1875 92.390625 81.261719 91.691406 82.300781 C 90.996094 83.34375 90.25 84.347656 89.457031 85.316406 C 88.660156 86.285156 87.820312 87.210938 86.9375 88.097656 C 86.050781 88.984375 85.121094 89.824219 84.15625 90.621094 C 83.1875 91.414062 82.179688 92.160156 81.140625 92.855469 C 80.097656 93.550781 79.023438 94.195312 77.917969 94.785156 C 76.816406 95.375 75.683594 95.910156 74.527344 96.390625 C 73.367188 96.871094 72.191406 97.292969 70.992188 97.65625 C 69.792969 98.019531 68.578125 98.324219 67.351562 98.566406 C 66.121094 98.8125 64.882812 98.996094 63.636719 99.117188 C 62.390625 99.242188 61.140625 99.300781 59.886719 99.300781 C 58.632812 99.300781 57.386719 99.242188 56.136719 99.117188 C 54.890625 98.996094 53.652344 98.8125 52.425781 98.566406 C 51.195312 98.324219 49.980469 98.019531 48.785156 97.65625 C 47.585938 97.292969 46.40625 96.871094 45.25 96.390625 C 44.089844 95.910156 42.960938 95.375 41.855469 94.785156 C 40.75 94.195312 39.675781 93.550781 38.636719 92.855469 C 37.59375 92.160156 36.589844 91.414062 35.621094 90.621094 C 34.652344 89.824219 33.726562 88.984375 32.839844 88.097656 C 31.953125 87.210938 31.113281 86.285156 30.316406 85.316406 C 29.523438 84.347656 28.777344 83.34375 28.082031 82.300781 C 27.386719 81.261719 26.742188 80.1875 26.152344 79.082031 C 25.5625 77.976562 25.027344 76.847656 24.546875 75.6875 C 24.066406 74.53125 23.644531 73.351562 23.28125 72.152344 C 22.917969 70.957031 22.613281 69.742188 22.371094 68.511719 C 22.125 67.285156 21.941406 66.046875 21.820312 64.800781 C 21.695312 63.550781 21.636719 62.304688 21.636719 61.050781 C 21.636719 59.796875 21.695312 58.546875 21.820312 57.300781 C 21.941406 56.054688 22.125 54.816406 22.371094 53.585938 C 22.613281 52.359375 22.917969 51.144531 23.28125 49.945312 C 23.644531 48.746094 24.066406 47.570312 24.546875 46.410156 C 25.027344 45.253906 25.5625 44.121094 26.152344 43.019531 C 26.742188 41.914062 27.386719 40.839844 28.082031 39.796875 C 28.777344 38.757812 29.523438 37.75 30.316406 36.78125 C 31.113281 35.816406 31.953125 34.886719 32.839844 34 C 33.726562 33.117188 34.652344 32.277344 35.621094 31.480469 C 36.589844 30.6875 37.59375 29.941406 38.636719 29.246094 C 39.675781 28.546875 40.75 27.90625 41.855469 27.316406 C 42.960938 26.722656 44.089844 26.1875 45.25 25.710938 C 46.40625 25.230469 47.585938 24.808594 48.785156 24.445312 C 49.980469 24.082031 51.195312 23.777344 52.425781 23.53125 C 53.652344 23.289062 54.890625 23.105469 56.136719 22.980469 C 57.386719 22.859375 58.632812 22.796875 59.886719 22.796875 C 61.140625 22.796875 62.390625 22.859375 63.636719 22.980469 C 64.882812 23.105469 66.121094 23.289062 67.351562 23.53125 C 68.578125 23.777344 69.792969 24.082031 70.992188 24.445312 C 72.191406 24.808594 73.367188 25.230469 74.527344 25.710938 C 75.683594 26.1875 76.816406 26.722656 77.917969 27.316406 C 79.023438 27.90625 80.097656 28.546875 81.140625 29.246094 C 82.179688 29.941406 83.1875 30.6875 84.15625 31.480469 C 85.121094 32.277344 86.050781 33.117188 86.9375 34 C 87.820312 34.886719 88.660156 35.816406 89.457031 36.78125 C 90.25 37.75 90.996094 38.757812 91.691406 39.796875 C 92.390625 40.839844 93.03125 41.914062 93.621094 43.019531 C 94.214844 44.121094 94.75 45.253906 95.226562 46.410156 C 95.707031 47.570312 96.128906 48.746094 96.492188 49.945312 C 96.855469 51.144531 97.160156 52.359375 97.40625 53.585938 C 97.648438 54.816406 97.832031 56.054688 97.957031 57.300781 C 98.078125 58.546875 98.140625 59.796875 98.140625 61.050781 Z M 98.140625 61.050781 " clip-rule="nonzero"/></clipPath><linearGradient x1="500" gradientTransform="matrix(0.110072, 0, 0, 0.110072, 4.85153, 6.014032)" y1="152.499981" x2="500" gradientUnits="userSpaceOnUse" y2="847.499955" id="87d3fde14f"><stop stop-opacity="1" stop-color="rgb(20.478821%, 82.800293%, 6.072998%)" offset="0"/><stop stop-opacity="1" stop-color="rgb(20.411682%, 82.698059%, 6.126404%)" offset="0.0078125"/><stop stop-opacity="1" stop-color="rgb(20.277405%, 82.493591%, 6.233215%)" offset="0.015625"/><stop stop-opacity="1" stop-color="rgb(20.143127%, 82.289124%, 6.340027%)" offset="0.0234375"/><stop stop-opacity="1" stop-color="rgb(20.00885%, 82.08313%, 6.446838%)" offset="0.03125"/><stop stop-opacity="1" stop-color="rgb(19.874573%, 81.878662%, 6.55365%)" offset="0.0390625"/><stop stop-opacity="1" stop-color="rgb(19.740295%, 81.674194%, 6.660461%)" offset="0.046875"/><stop stop-opacity="1" stop-color="rgb(19.606018%, 81.469727%, 6.768799%)" offset="0.0546875"/><stop stop-opacity="1" stop-color="rgb(19.471741%, 81.263733%, 6.87561%)" offset="0.0625"/><stop stop-opacity="1" stop-color="rgb(19.337463%, 81.059265%, 6.982422%)" offset="0.0703125"/><stop stop-opacity="1" stop-color="rgb(19.203186%, 80.854797%, 7.089233%)" offset="0.078125"/><stop stop-opacity="1" stop-color="rgb(19.068909%, 80.65033%, 7.196045%)" offset="0.0859375"/><stop stop-opacity="1" stop-color="rgb(18.934631%, 80.444336%, 7.302856%)" offset="0.09375"/><stop stop-opacity="1" stop-color="rgb(18.800354%, 80.239868%, 7.409668%)" offset="0.101562"/><stop stop-opacity="1" stop-color="rgb(18.666077%, 80.0354%, 7.516479%)" offset="0.109375"/><stop stop-opacity="1" stop-color="rgb(18.531799%, 79.830933%, 7.623291%)" offset="0.117187"/><stop stop-opacity="1" stop-color="rgb(18.397522%, 79.624939%, 7.731628%)" offset="0.125"/><stop stop-opacity="1" stop-color="rgb(18.263245%, 79.420471%, 7.83844%)" offset="0.132812"/><stop stop-opacity="1" stop-color="rgb(18.128967%, 79.216003%, 7.945251%)" offset="0.140625"/><stop stop-opacity="1" stop-color="rgb(17.99469%, 79.01001%, 8.052063%)" offset="0.148437"/><stop stop-opacity="1" stop-color="rgb(17.860413%, 78.805542%, 8.158875%)" offset="0.15625"/><stop stop-opacity="1" stop-color="rgb(17.726135%, 78.601074%, 8.265686%)" offset="0.164062"/><stop stop-opacity="1" stop-color="rgb(17.591858%, 78.396606%, 8.372498%)" offset="0.171875"/><stop stop-opacity="1" stop-color="rgb(17.457581%, 78.190613%, 8.479309%)" offset="0.179688"/><stop stop-opacity="1" stop-color="rgb(17.323303%, 77.986145%, 8.586121%)" offset="0.1875"/><stop stop-opacity="1" stop-color="rgb(17.189026%, 77.781677%, 8.694458%)" offset="0.195312"/><stop stop-opacity="1" stop-color="rgb(17.054749%, 77.577209%, 8.80127%)" offset="0.203125"/><stop stop-opacity="1" stop-color="rgb(16.920471%, 77.371216%, 8.908081%)" offset="0.210938"/><stop stop-opacity="1" stop-color="rgb(16.786194%, 77.166748%, 9.014893%)" offset="0.21875"/><stop stop-opacity="1" stop-color="rgb(16.651917%, 76.96228%, 9.121704%)" offset="0.226562"/><stop stop-opacity="1" stop-color="rgb(16.517639%, 76.757812%, 9.228516%)" offset="0.234375"/><stop stop-opacity="1" stop-color="rgb(16.383362%, 76.551819%, 9.335327%)" offset="0.242187"/><stop stop-opacity="1" stop-color="rgb(16.249084%, 76.347351%, 9.442139%)" offset="0.25"/><stop stop-opacity="1" stop-color="rgb(16.114807%, 76.142883%, 9.550476%)" offset="0.257812"/><stop stop-opacity="1" stop-color="rgb(15.98053%, 75.938416%, 9.657288%)" offset="0.265625"/><stop stop-opacity="1" stop-color="rgb(15.846252%, 75.732422%, 9.764099%)" offset="0.273437"/><stop stop-opacity="1" stop-color="rgb(15.711975%, 75.527954%, 9.870911%)" offset="0.28125"/><stop stop-opacity="1" stop-color="rgb(15.577698%, 75.323486%, 9.977722%)" offset="0.289062"/><stop stop-opacity="1" stop-color="rgb(15.44342%, 75.117493%, 10.084534%)" offset="0.296875"/><stop stop-opacity="1" stop-color="rgb(15.309143%, 74.913025%, 10.191345%)" offset="0.304688"/><stop stop-opacity="1" stop-color="rgb(15.174866%, 74.708557%, 10.298157%)" offset="0.3125"/><stop stop-opacity="1" stop-color="rgb(15.040588%, 74.504089%, 10.404968%)" offset="0.320312"/><stop stop-opacity="1" stop-color="rgb(14.906311%, 74.298096%, 10.513306%)" offset="0.328125"/><stop stop-opacity="1" stop-color="rgb(14.772034%, 74.093628%, 10.620117%)" offset="0.335938"/><stop stop-opacity="1" stop-color="rgb(14.637756%, 73.88916%, 10.726929%)" offset="0.34375"/><stop stop-opacity="1" stop-color="rgb(14.503479%, 73.684692%, 10.83374%)" offset="0.351562"/><stop stop-opacity="1" stop-color="rgb(14.369202%, 73.478699%, 10.940552%)" offset="0.359375"/><stop stop-opacity="1" stop-color="rgb(14.234924%, 73.274231%, 11.047363%)" offset="0.367187"/><stop stop-opacity="1" stop-color="rgb(14.099121%, 73.069763%, 11.154175%)" offset="0.375"/><stop stop-opacity="1" stop-color="rgb(13.964844%, 72.865295%, 11.260986%)" offset="0.382812"/><stop stop-opacity="1" stop-color="rgb(13.830566%, 72.659302%, 11.367798%)" offset="0.390625"/><stop stop-opacity="1" stop-color="rgb(13.696289%, 72.454834%, 11.476135%)" offset="0.398437"/><stop stop-opacity="1" stop-color="rgb(13.562012%, 72.250366%, 11.582947%)" offset="0.40625"/><stop stop-opacity="1" stop-color="rgb(13.427734%, 72.045898%, 11.689758%)" offset="0.414062"/><stop stop-opacity="1" stop-color="rgb(13.293457%, 71.839905%, 11.79657%)" offset="0.421875"/><stop stop-opacity="1" stop-color="rgb(13.15918%, 71.635437%, 11.903381%)" offset="0.429687"/><stop stop-opacity="1" stop-color="rgb(13.024902%, 71.430969%, 12.010193%)" offset="0.4375"/><stop stop-opacity="1" stop-color="rgb(12.890625%, 71.224976%, 12.117004%)" offset="0.445312"/><stop stop-opacity="1" stop-color="rgb(12.756348%, 71.020508%, 12.223816%)" offset="0.453125"/><stop stop-opacity="1" stop-color="rgb(12.62207%, 70.81604%, 12.332153%)" offset="0.460937"/><stop stop-opacity="1" stop-color="rgb(12.487793%, 70.611572%, 12.438965%)" offset="0.46875"/><stop stop-opacity="1" stop-color="rgb(12.353516%, 70.405579%, 12.545776%)" offset="0.476562"/><stop stop-opacity="1" stop-color="rgb(12.219238%, 70.201111%, 12.652588%)" offset="0.484375"/><stop stop-opacity="1" stop-color="rgb(12.084961%, 69.996643%, 12.759399%)" offset="0.492187"/><stop stop-opacity="1" stop-color="rgb(11.950684%, 69.792175%, 12.866211%)" offset="0.5"/><stop stop-opacity="1" stop-color="rgb(11.816406%, 69.586182%, 12.973022%)" offset="0.507812"/><stop stop-opacity="1" stop-color="rgb(11.682129%, 69.381714%, 13.079834%)" offset="0.515625"/><stop stop-opacity="1" stop-color="rgb(11.547852%, 69.177246%, 13.186646%)" offset="0.523437"/><stop stop-opacity="1" stop-color="rgb(11.413574%, 68.972778%, 13.294983%)" offset="0.53125"/><stop stop-opacity="1" stop-color="rgb(11.279297%, 68.766785%, 13.401794%)" offset="0.539062"/><stop stop-opacity="1" stop-color="rgb(11.14502%, 68.562317%, 13.508606%)" offset="0.546875"/><stop stop-opacity="1" stop-color="rgb(11.010742%, 68.357849%, 13.615417%)" offset="0.554688"/><stop stop-opacity="1" stop-color="rgb(10.876465%, 68.153381%, 13.722229%)" offset="0.5625"/><stop stop-opacity="1" stop-color="rgb(10.742188%, 67.947388%, 13.829041%)" offset="0.570312"/><stop stop-opacity="1" stop-color="rgb(10.60791%, 67.74292%, 13.935852%)" offset="0.578125"/><stop stop-opacity="1" stop-color="rgb(10.473633%, 67.538452%, 14.042664%)" offset="0.585937"/><stop stop-opacity="1" stop-color="rgb(10.339355%, 67.332458%, 14.149475%)" offset="0.59375"/><stop stop-opacity="1" stop-color="rgb(10.205078%, 67.127991%, 14.257812%)" offset="0.601562"/><stop stop-opacity="1" stop-color="rgb(10.070801%, 66.923523%, 14.364624%)" offset="0.609375"/><stop stop-opacity="1" stop-color="rgb(9.936523%, 66.719055%, 14.471436%)" offset="0.617187"/><stop stop-opacity="1" stop-color="rgb(9.802246%, 66.513062%, 14.578247%)" offset="0.625"/><stop stop-opacity="1" stop-color="rgb(9.667969%, 66.308594%, 14.685059%)" offset="0.632812"/><stop stop-opacity="1" stop-color="rgb(9.533691%, 66.104126%, 14.79187%)" offset="0.640625"/><stop stop-opacity="1" stop-color="rgb(9.399414%, 65.899658%, 14.898682%)" offset="0.648438"/><stop stop-opacity="1" stop-color="rgb(9.265137%, 65.693665%, 15.005493%)" offset="0.65625"/><stop stop-opacity="1" stop-color="rgb(9.130859%, 65.489197%, 15.113831%)" offset="0.664062"/><stop stop-opacity="1" stop-color="rgb(8.996582%, 65.284729%, 15.220642%)" offset="0.671875"/><stop stop-opacity="1" stop-color="rgb(8.862305%, 65.080261%, 15.327454%)" offset="0.679687"/><stop stop-opacity="1" stop-color="rgb(8.728027%, 64.874268%, 15.434265%)" offset="0.6875"/><stop stop-opacity="1" stop-color="rgb(8.59375%, 64.6698%, 15.541077%)" offset="0.695312"/><stop stop-opacity="1" stop-color="rgb(8.459473%, 64.465332%, 15.647888%)" offset="0.703125"/><stop stop-opacity="1" stop-color="rgb(8.325195%, 64.260864%, 15.7547%)" offset="0.710937"/><stop stop-opacity="1" stop-color="rgb(8.190918%, 64.054871%, 15.861511%)" offset="0.71875"/><stop stop-opacity="1" stop-color="rgb(8.056641%, 63.850403%, 15.968323%)" offset="0.726562"/><stop stop-opacity="1" stop-color="rgb(7.922363%, 63.645935%, 16.07666%)" offset="0.734375"/><stop stop-opacity="1" stop-color="rgb(7.788086%, 63.439941%, 16.183472%)" offset="0.742188"/><stop stop-opacity="1" stop-color="rgb(7.653809%, 63.235474%, 16.290283%)" offset="0.75"/><stop stop-opacity="1" stop-color="rgb(7.519531%, 63.031006%, 16.397095%)" offset="0.757812"/><stop stop-opacity="1" stop-color="rgb(7.385254%, 62.826538%, 16.503906%)" offset="0.765625"/><stop stop-opacity="1" stop-color="rgb(7.250977%, 62.620544%, 16.610718%)" offset="0.773438"/><stop stop-opacity="1" stop-color="rgb(7.116699%, 62.416077%, 16.717529%)" offset="0.78125"/><stop stop-opacity="1" stop-color="rgb(6.982422%, 62.211609%, 16.824341%)" offset="0.789062"/><stop stop-opacity="1" stop-color="rgb(6.848145%, 62.007141%, 16.931152%)" offset="0.796875"/><stop stop-opacity="1" stop-color="rgb(6.713867%, 61.801147%, 17.03949%)" offset="0.804687"/><stop stop-opacity="1" stop-color="rgb(6.57959%, 61.59668%, 17.146301%)" offset="0.8125"/><stop stop-opacity="1" stop-color="rgb(6.445312%, 61.392212%, 17.253113%)" offset="0.820312"/><stop stop-opacity="1" stop-color="rgb(6.309509%, 61.187744%, 17.359924%)" offset="0.828125"/><stop stop-opacity="1" stop-color="rgb(6.175232%, 60.98175%, 17.466736%)" offset="0.835937"/><stop stop-opacity="1" stop-color="rgb(6.040955%, 60.777283%, 17.573547%)" offset="0.84375"/><stop stop-opacity="1" stop-color="rgb(5.906677%, 60.572815%, 17.680359%)" offset="0.851562"/><stop stop-opacity="1" stop-color="rgb(5.7724%, 60.366821%, 17.78717%)" offset="0.859375"/><stop stop-opacity="1" stop-color="rgb(5.638123%, 60.162354%, 17.895508%)" offset="0.867188"/><stop stop-opacity="1" stop-color="rgb(5.503845%, 59.957886%, 18.002319%)" offset="0.875"/><stop stop-opacity="1" stop-color="rgb(5.369568%, 59.753418%, 18.109131%)" offset="0.882812"/><stop stop-opacity="1" stop-color="rgb(5.235291%, 59.547424%, 18.215942%)" offset="0.890625"/><stop stop-opacity="1" stop-color="rgb(5.101013%, 59.342957%, 18.322754%)" offset="0.898438"/><stop stop-opacity="1" stop-color="rgb(4.966736%, 59.138489%, 18.429565%)" offset="0.90625"/><stop stop-opacity="1" stop-color="rgb(4.832458%, 58.934021%, 18.536377%)" offset="0.914062"/><stop stop-opacity="1" stop-color="rgb(4.698181%, 58.728027%, 18.643188%)" offset="0.921875"/><stop stop-opacity="1" stop-color="rgb(4.563904%, 58.52356%, 18.75%)" offset="0.929687"/><stop stop-opacity="1" stop-color="rgb(4.429626%, 58.319092%, 18.858337%)" offset="0.9375"/><stop stop-opacity="1" stop-color="rgb(4.295349%, 58.114624%, 18.965149%)" offset="0.945312"/><stop stop-opacity="1" stop-color="rgb(4.161072%, 57.90863%, 19.07196%)" offset="0.953125"/><stop stop-opacity="1" stop-color="rgb(4.026794%, 57.704163%, 19.178772%)" offset="0.960938"/><stop stop-opacity="1" stop-color="rgb(3.892517%, 57.499695%, 19.285583%)" offset="0.96875"/><stop stop-opacity="1" stop-color="rgb(3.75824%, 57.295227%, 19.392395%)" offset="0.976562"/><stop stop-opacity="1" stop-color="rgb(3.623962%, 57.089233%, 19.499207%)" offset="0.984375"/><stop stop-opacity="1" stop-color="rgb(3.527832%, 56.942749%, 19.5755%)" offset="1"/></linearGradient><clipPath id="aef94f9a5e"><path d="M 27 29 L 92 29 L 92 93 L 27 93 Z M 27 29 " clip-rule="nonzero"/></clipPath><clipPath id="635cbf488b"><path d="M 91.800781 61.050781 C 91.800781 62.09375 91.75 63.136719 91.648438 64.179688 C 91.546875 65.21875 91.390625 66.25 91.1875 67.277344 C 90.984375 68.300781 90.730469 69.3125 90.425781 70.3125 C 90.125 71.3125 89.773438 72.296875 89.371094 73.261719 C 88.972656 74.226562 88.527344 75.171875 88.03125 76.09375 C 87.539062 77.015625 87.003906 77.910156 86.421875 78.78125 C 85.84375 79.648438 85.21875 80.488281 84.558594 81.296875 C 83.894531 82.105469 83.191406 82.878906 82.453125 83.617188 C 81.714844 84.355469 80.941406 85.054688 80.132812 85.71875 C 79.324219 86.382812 78.488281 87.003906 77.617188 87.585938 C 76.75 88.164062 75.851562 88.703125 74.929688 89.195312 C 74.007812 89.6875 73.066406 90.132812 72.101562 90.535156 C 71.132812 90.933594 70.152344 91.285156 69.152344 91.589844 C 68.152344 91.894531 67.136719 92.144531 66.113281 92.351562 C 65.089844 92.554688 64.054688 92.707031 63.015625 92.808594 C 61.976562 92.914062 60.933594 92.964844 59.886719 92.964844 C 58.84375 92.964844 57.800781 92.914062 56.757812 92.808594 C 55.71875 92.707031 54.6875 92.554688 53.660156 92.351562 C 52.636719 92.144531 51.625 91.894531 50.625 91.589844 C 49.625 91.285156 48.640625 90.933594 47.675781 90.535156 C 46.710938 90.132812 45.765625 89.6875 44.84375 89.195312 C 43.921875 88.703125 43.027344 88.164062 42.15625 87.585938 C 41.289062 87.003906 40.449219 86.382812 39.640625 85.71875 C 38.832031 85.054688 38.058594 84.355469 37.320312 83.617188 C 36.582031 82.878906 35.882812 82.105469 35.21875 81.296875 C 34.554688 80.488281 33.933594 79.648438 33.351562 78.78125 C 32.773438 77.910156 32.234375 77.015625 31.742188 76.09375 C 31.25 75.171875 30.804688 74.226562 30.402344 73.261719 C 30.003906 72.296875 29.652344 71.3125 29.347656 70.3125 C 29.042969 69.3125 28.792969 68.300781 28.585938 67.277344 C 28.382812 66.25 28.230469 65.21875 28.128906 64.179688 C 28.023438 63.136719 27.972656 62.09375 27.972656 61.050781 C 27.972656 60.003906 28.023438 58.960938 28.128906 57.921875 C 28.230469 56.882812 28.382812 55.847656 28.585938 54.824219 C 28.792969 53.800781 29.042969 52.785156 29.347656 51.785156 C 29.652344 50.785156 30.003906 49.804688 30.402344 48.835938 C 30.804688 47.871094 31.25 46.929688 31.742188 46.007812 C 32.234375 45.085938 32.773438 44.1875 33.351562 43.320312 C 33.933594 42.449219 34.554688 41.613281 35.21875 40.804688 C 35.882812 39.996094 36.582031 39.222656 37.320312 38.484375 C 38.058594 37.746094 38.832031 37.042969 39.640625 36.378906 C 40.449219 35.71875 41.289062 35.09375 42.15625 34.515625 C 43.027344 33.933594 43.921875 33.398438 44.84375 32.90625 C 45.765625 32.410156 46.710938 31.964844 47.675781 31.566406 C 48.640625 31.164062 49.625 30.8125 50.625 30.511719 C 51.625 30.207031 52.636719 29.953125 53.660156 29.75 C 54.6875 29.546875 55.71875 29.390625 56.757812 29.289062 C 57.800781 29.1875 58.84375 29.136719 59.886719 29.136719 C 60.933594 29.136719 61.976562 29.1875 63.015625 29.289062 C 64.054688 29.390625 65.089844 29.546875 66.113281 29.75 C 67.136719 29.953125 68.152344 30.207031 69.152344 30.511719 C 70.152344 30.8125 71.132812 31.164062 72.101562 31.566406 C 73.066406 31.964844 74.007812 32.410156 74.929688 32.90625 C 75.851562 33.398438 76.75 33.933594 77.617188 34.515625 C 78.488281 35.09375 79.324219 35.71875 80.132812 36.378906 C 80.941406 37.042969 81.714844 37.746094 82.453125 38.484375 C 83.191406 39.222656 83.894531 39.996094 84.558594 40.804688 C 85.21875 41.613281 85.84375 42.449219 86.421875 43.320312 C 87.003906 44.1875 87.539062 45.085938 88.03125 46.007812 C 88.527344 46.929688 88.972656 47.871094 89.371094 48.835938 C 89.773438 49.804688 90.125 50.785156 90.425781 51.785156 C 90.730469 52.785156 90.984375 53.800781 91.1875 54.824219 C 91.390625 55.847656 91.546875 56.882812 91.648438 57.921875 C 91.75 58.960938 91.800781 60.003906 91.800781 61.050781 Z M 91.800781 61.050781 " clip-rule="nonzero"/></clipPath><linearGradient x1="500" gradientTransform="matrix(0.110072, 0, 0, 0.110072, 4.85153, 6.014032)" y1="789.933934" x2="500" gradientUnits="userSpaceOnUse" y2="210.065998" id="2d8e6e6e3a"><stop stop-opacity="1" stop-color="rgb(20.98999%, 83.580017%, 5.665588%)" offset="0"/><stop stop-opacity="1" stop-color="rgb(20.9198%, 83.473206%, 5.72052%)" offset="0.0078125"/><stop stop-opacity="1" stop-color="rgb(20.779419%, 83.259583%, 5.831909%)" offset="0.015625"/><stop stop-opacity="1" stop-color="rgb(20.640564%, 83.045959%, 5.943298%)" offset="0.0234375"/><stop stop-opacity="1" stop-color="rgb(20.500183%, 82.833862%, 6.054688%)" offset="0.03125"/><stop stop-opacity="1" stop-color="rgb(20.359802%, 82.620239%, 6.166077%)" offset="0.0390625"/><stop stop-opacity="1" stop-color="rgb(20.220947%, 82.406616%, 6.277466%)" offset="0.046875"/><stop stop-opacity="1" stop-color="rgb(20.080566%, 82.194519%, 6.388855%)" offset="0.0546875"/><stop stop-opacity="1" stop-color="rgb(19.941711%, 81.980896%, 6.500244%)" offset="0.0625"/><stop stop-opacity="1" stop-color="rgb(19.801331%, 81.767273%, 6.611633%)" offset="0.0703125"/><stop stop-opacity="1" stop-color="rgb(19.662476%, 81.555176%, 6.723022%)" offset="0.078125"/><stop stop-opacity="1" stop-color="rgb(19.522095%, 81.341553%, 6.834412%)" offset="0.0859375"/><stop stop-opacity="1" stop-color="rgb(19.38324%, 81.12793%, 6.945801%)" offset="0.09375"/><stop stop-opacity="1" stop-color="rgb(19.242859%, 80.915833%, 7.05719%)" offset="0.101562"/><stop stop-opacity="1" stop-color="rgb(19.102478%, 80.702209%, 7.168579%)" offset="0.109375"/><stop stop-opacity="1" stop-color="rgb(18.963623%, 80.488586%, 7.279968%)" offset="0.117187"/><stop stop-opacity="1" stop-color="rgb(18.823242%, 80.274963%, 7.391357%)" offset="0.125"/><stop stop-opacity="1" stop-color="rgb(18.684387%, 80.062866%, 7.502747%)" offset="0.132812"/><stop stop-opacity="1" stop-color="rgb(18.544006%, 79.849243%, 7.61261%)" offset="0.140625"/><stop stop-opacity="1" stop-color="rgb(18.405151%, 79.63562%, 7.723999%)" offset="0.148437"/><stop stop-opacity="1" stop-color="rgb(18.264771%, 79.423523%, 7.835388%)" offset="0.15625"/><stop stop-opacity="1" stop-color="rgb(18.12439%, 79.2099%, 7.946777%)" offset="0.164062"/><stop stop-opacity="1" stop-color="rgb(17.985535%, 78.996277%, 8.058167%)" offset="0.171875"/><stop stop-opacity="1" stop-color="rgb(17.845154%, 78.78418%, 8.169556%)" offset="0.179687"/><stop stop-opacity="1" stop-color="rgb(17.706299%, 78.570557%, 8.280945%)" offset="0.1875"/><stop stop-opacity="1" stop-color="rgb(17.565918%, 78.356934%, 8.392334%)" offset="0.195312"/><stop stop-opacity="1" stop-color="rgb(17.427063%, 78.144836%, 8.503723%)" offset="0.203125"/><stop stop-opacity="1" stop-color="rgb(17.286682%, 77.931213%, 8.615112%)" offset="0.210937"/><stop stop-opacity="1" stop-color="rgb(17.146301%, 77.71759%, 8.726501%)" offset="0.21875"/><stop stop-opacity="1" stop-color="rgb(17.007446%, 77.505493%, 8.837891%)" offset="0.226562"/><stop stop-opacity="1" stop-color="rgb(16.867065%, 77.29187%, 8.94928%)" offset="0.234375"/><stop stop-opacity="1" stop-color="rgb(16.72821%, 77.078247%, 9.060669%)" offset="0.242187"/><stop stop-opacity="1" stop-color="rgb(16.58783%, 76.86615%, 9.172058%)" offset="0.25"/><stop stop-opacity="1" stop-color="rgb(16.448975%, 76.652527%, 9.283447%)" offset="0.257812"/><stop stop-opacity="1" stop-color="rgb(16.308594%, 76.438904%, 9.394836%)" offset="0.265625"/><stop stop-opacity="1" stop-color="rgb(16.168213%, 76.226807%, 9.5047%)" offset="0.273438"/><stop stop-opacity="1" stop-color="rgb(16.029358%, 76.013184%, 9.616089%)" offset="0.28125"/><stop stop-opacity="1" stop-color="rgb(15.888977%, 75.799561%, 9.727478%)" offset="0.289062"/><stop stop-opacity="1" stop-color="rgb(15.750122%, 75.587463%, 9.838867%)" offset="0.296875"/><stop stop-opacity="1" stop-color="rgb(15.609741%, 75.37384%, 9.950256%)" offset="0.304688"/><stop stop-opacity="1" stop-color="rgb(15.470886%, 75.160217%, 10.061646%)" offset="0.3125"/><stop stop-opacity="1" stop-color="rgb(15.330505%, 74.946594%, 10.173035%)" offset="0.320312"/><stop stop-opacity="1" stop-color="rgb(15.190125%, 74.734497%, 10.284424%)" offset="0.328125"/><stop stop-opacity="1" stop-color="rgb(15.05127%, 74.520874%, 10.395813%)" offset="0.335938"/><stop stop-opacity="1" stop-color="rgb(14.910889%, 74.307251%, 10.507202%)" offset="0.34375"/><stop stop-opacity="1" stop-color="rgb(14.772034%, 74.095154%, 10.618591%)" offset="0.351562"/><stop stop-opacity="1" stop-color="rgb(14.631653%, 73.881531%, 10.72998%)" offset="0.359375"/><stop stop-opacity="1" stop-color="rgb(14.492798%, 73.667908%, 10.84137%)" offset="0.367188"/><stop stop-opacity="1" stop-color="rgb(14.352417%, 73.455811%, 10.952759%)" offset="0.375"/><stop stop-opacity="1" stop-color="rgb(14.213562%, 73.242188%, 11.064148%)" offset="0.382812"/><stop stop-opacity="1" stop-color="rgb(14.073181%, 73.028564%, 11.175537%)" offset="0.390625"/><stop stop-opacity="1" stop-color="rgb(13.9328%, 72.816467%, 11.286926%)" offset="0.398438"/><stop stop-opacity="1" stop-color="rgb(13.793945%, 72.602844%, 11.398315%)" offset="0.40625"/><stop stop-opacity="1" stop-color="rgb(13.653564%, 72.389221%, 11.508179%)" offset="0.414062"/><stop stop-opacity="1" stop-color="rgb(13.514709%, 72.177124%, 11.619568%)" offset="0.421875"/><stop stop-opacity="1" stop-color="rgb(13.374329%, 71.963501%, 11.730957%)" offset="0.429688"/><stop stop-opacity="1" stop-color="rgb(13.235474%, 71.749878%, 11.842346%)" offset="0.4375"/><stop stop-opacity="1" stop-color="rgb(13.095093%, 71.537781%, 11.953735%)" offset="0.445312"/><stop stop-opacity="1" stop-color="rgb(12.954712%, 71.324158%, 12.065125%)" offset="0.453125"/><stop stop-opacity="1" stop-color="rgb(12.815857%, 71.110535%, 12.176514%)" offset="0.460938"/><stop stop-opacity="1" stop-color="rgb(12.675476%, 70.898438%, 12.287903%)" offset="0.46875"/><stop stop-opacity="1" stop-color="rgb(12.536621%, 70.684814%, 12.399292%)" offset="0.476562"/><stop stop-opacity="1" stop-color="rgb(12.39624%, 70.471191%, 12.510681%)" offset="0.484375"/><stop stop-opacity="1" stop-color="rgb(12.257385%, 70.259094%, 12.62207%)" offset="0.492188"/><stop stop-opacity="1" stop-color="rgb(12.117004%, 70.045471%, 12.733459%)" offset="0.5"/><stop stop-opacity="1" stop-color="rgb(11.976624%, 69.831848%, 12.844849%)" offset="0.507812"/><stop stop-opacity="1" stop-color="rgb(11.837769%, 69.619751%, 12.956238%)" offset="0.515625"/><stop stop-opacity="1" stop-color="rgb(11.697388%, 69.406128%, 13.067627%)" offset="0.523438"/><stop stop-opacity="1" stop-color="rgb(11.558533%, 69.192505%, 13.179016%)" offset="0.53125"/><stop stop-opacity="1" stop-color="rgb(11.418152%, 68.978882%, 13.290405%)" offset="0.539062"/><stop stop-opacity="1" stop-color="rgb(11.279297%, 68.766785%, 13.401794%)" offset="0.546875"/><stop stop-opacity="1" stop-color="rgb(11.138916%, 68.553162%, 13.511658%)" offset="0.554688"/><stop stop-opacity="1" stop-color="rgb(10.998535%, 68.339539%, 13.623047%)" offset="0.5625"/><stop stop-opacity="1" stop-color="rgb(10.85968%, 68.127441%, 13.734436%)" offset="0.570312"/><stop stop-opacity="1" stop-color="rgb(10.719299%, 67.913818%, 13.845825%)" offset="0.578125"/><stop stop-opacity="1" stop-color="rgb(10.580444%, 67.700195%, 13.957214%)" offset="0.585938"/><stop stop-opacity="1" stop-color="rgb(10.440063%, 67.488098%, 14.068604%)" offset="0.59375"/><stop stop-opacity="1" stop-color="rgb(10.301208%, 67.274475%, 14.179993%)" offset="0.601562"/><stop stop-opacity="1" stop-color="rgb(10.160828%, 67.060852%, 14.291382%)" offset="0.609375"/><stop stop-opacity="1" stop-color="rgb(10.021973%, 66.848755%, 14.402771%)" offset="0.617188"/><stop stop-opacity="1" stop-color="rgb(9.881592%, 66.635132%, 14.51416%)" offset="0.625"/><stop stop-opacity="1" stop-color="rgb(9.741211%, 66.421509%, 14.625549%)" offset="0.632812"/><stop stop-opacity="1" stop-color="rgb(9.602356%, 66.209412%, 14.736938%)" offset="0.640625"/><stop stop-opacity="1" stop-color="rgb(9.461975%, 65.995789%, 14.848328%)" offset="0.648438"/><stop stop-opacity="1" stop-color="rgb(9.32312%, 65.782166%, 14.959717%)" offset="0.65625"/><stop stop-opacity="1" stop-color="rgb(9.182739%, 65.570068%, 15.071106%)" offset="0.664062"/><stop stop-opacity="1" stop-color="rgb(9.043884%, 65.356445%, 15.182495%)" offset="0.671875"/><stop stop-opacity="1" stop-color="rgb(8.903503%, 65.142822%, 15.293884%)" offset="0.679688"/><stop stop-opacity="1" stop-color="rgb(8.763123%, 64.930725%, 15.405273%)" offset="0.6875"/><stop stop-opacity="1" stop-color="rgb(8.624268%, 64.717102%, 15.515137%)" offset="0.695312"/><stop stop-opacity="1" stop-color="rgb(8.483887%, 64.503479%, 15.626526%)" offset="0.703125"/><stop stop-opacity="1" stop-color="rgb(8.345032%, 64.291382%, 15.737915%)" offset="0.710938"/><stop stop-opacity="1" stop-color="rgb(8.204651%, 64.077759%, 15.849304%)" offset="0.71875"/><stop stop-opacity="1" stop-color="rgb(8.065796%, 63.864136%, 15.960693%)" offset="0.726562"/><stop stop-opacity="1" stop-color="rgb(7.925415%, 63.650513%, 16.072083%)" offset="0.734375"/><stop stop-opacity="1" stop-color="rgb(7.785034%, 63.438416%, 16.183472%)" offset="0.742188"/><stop stop-opacity="1" stop-color="rgb(7.646179%, 63.224792%, 16.294861%)" offset="0.75"/><stop stop-opacity="1" stop-color="rgb(7.505798%, 63.011169%, 16.40625%)" offset="0.757812"/><stop stop-opacity="1" stop-color="rgb(7.366943%, 62.799072%, 16.517639%)" offset="0.765625"/><stop stop-opacity="1" stop-color="rgb(7.226562%, 62.585449%, 16.629028%)" offset="0.773438"/><stop stop-opacity="1" stop-color="rgb(7.087708%, 62.371826%, 16.740417%)" offset="0.78125"/><stop stop-opacity="1" stop-color="rgb(6.947327%, 62.159729%, 16.851807%)" offset="0.789062"/><stop stop-opacity="1" stop-color="rgb(6.806946%, 61.946106%, 16.963196%)" offset="0.796875"/><stop stop-opacity="1" stop-color="rgb(6.668091%, 61.732483%, 17.074585%)" offset="0.804688"/><stop stop-opacity="1" stop-color="rgb(6.52771%, 61.520386%, 17.185974%)" offset="0.8125"/><stop stop-opacity="1" stop-color="rgb(6.388855%, 61.306763%, 17.297363%)" offset="0.820312"/><stop stop-opacity="1" stop-color="rgb(6.248474%, 61.09314%, 17.407227%)" offset="0.828125"/><stop stop-opacity="1" stop-color="rgb(6.109619%, 60.881042%, 17.518616%)" offset="0.835938"/><stop stop-opacity="1" stop-color="rgb(5.969238%, 60.667419%, 17.630005%)" offset="0.84375"/><stop stop-opacity="1" stop-color="rgb(5.828857%, 60.453796%, 17.741394%)" offset="0.851562"/><stop stop-opacity="1" stop-color="rgb(5.690002%, 60.241699%, 17.852783%)" offset="0.859375"/><stop stop-opacity="1" stop-color="rgb(5.549622%, 60.028076%, 17.964172%)" offset="0.867188"/><stop stop-opacity="1" stop-color="rgb(5.410767%, 59.814453%, 18.075562%)" offset="0.875"/><stop stop-opacity="1" stop-color="rgb(5.270386%, 59.602356%, 18.186951%)" offset="0.882812"/><stop stop-opacity="1" stop-color="rgb(5.131531%, 59.388733%, 18.29834%)" offset="0.890625"/><stop stop-opacity="1" stop-color="rgb(4.99115%, 59.17511%, 18.409729%)" offset="0.898438"/><stop stop-opacity="1" stop-color="rgb(4.852295%, 58.963013%, 18.521118%)" offset="0.90625"/><stop stop-opacity="1" stop-color="rgb(4.711914%, 58.74939%, 18.632507%)" offset="0.914062"/><stop stop-opacity="1" stop-color="rgb(4.571533%, 58.535767%, 18.743896%)" offset="0.921875"/><stop stop-opacity="1" stop-color="rgb(4.432678%, 58.323669%, 18.855286%)" offset="0.929688"/><stop stop-opacity="1" stop-color="rgb(4.292297%, 58.110046%, 18.966675%)" offset="0.9375"/><stop stop-opacity="1" stop-color="rgb(4.153442%, 57.896423%, 19.078064%)" offset="0.945312"/><stop stop-opacity="1" stop-color="rgb(4.013062%, 57.6828%, 19.189453%)" offset="0.953125"/><stop stop-opacity="1" stop-color="rgb(3.874207%, 57.470703%, 19.300842%)" offset="0.960938"/><stop stop-opacity="1" stop-color="rgb(3.733826%, 57.25708%, 19.410706%)" offset="0.96875"/><stop stop-opacity="1" stop-color="rgb(3.581238%, 57.023621%, 19.532776%)" offset="1"/></linearGradient></defs><g clip-path="url(#9eb93fc4df)"><g clip-path="url(#7fbc7a0008)"><path fill="url(#87d3fde14f)" d="M 21.636719 22.800781 L 21.636719 99.300781 L 98.136719 99.300781 L 98.136719 22.800781 Z M 21.636719 22.800781 " fill-rule="nonzero"/></g></g><g clip-path="url(#aef94f9a5e)"><g clip-path="url(#635cbf488b)"><path fill="url(#2d8e6e6e3a)" d="M 27.972656 29.136719 L 27.972656 92.964844 L 91.800781 92.964844 L 91.800781 29.136719 Z M 27.972656 29.136719 " fill-rule="nonzero"/></g></g><path fill="#ffffff" d="M 76.839844 75.277344 L 77.222656 74.898438 C 79.097656 73.019531 78.847656 69.910156 76.695312 68.359375 L 73.523438 66.070312 C 71.503906 64.613281 68.726562 64.839844 66.964844 66.597656 L 66.539062 67.027344 C 65.351562 68.214844 63.523438 68.476562 62.054688 67.667969 C 58.394531 65.65625 55.476562 62.71875 53.300781 58.855469 C 52.46875 57.375 52.710938 55.519531 53.914062 54.316406 L 54.300781 53.933594 C 56.058594 52.171875 56.285156 49.394531 54.828125 47.375 L 52.539062 44.203125 C 50.988281 42.050781 47.878906 41.800781 46 43.675781 L 45.726562 43.949219 C 41.832031 47.84375 41.109375 53.898438 43.980469 58.597656 C 48.6875 66.300781 54.726562 72.464844 62.164062 77.007812 C 66.875 79.886719 72.9375 79.179688 76.839844 75.277344 Z M 76.839844 75.277344 " fill-opacity="1" fill-rule="nonzero"/></svg>